<svg width="255" height="54" viewBox="0 0 255 54" fill="none" xmlns="http://www.w3.org/2000/svg">
<g clip-path="url(#clip0_2149_48047)">
<path d="M251.499 36.8842L255 39.0812C254.024 40.8226 252.556 42.2381 250.781 43.1514C248.881 44.1044 246.779 44.582 244.654 44.5432C242.233 44.5823 239.842 44.0071 237.704 42.8713C235.734 41.7994 234.092 40.2145 232.951 38.2847C231.777 36.2468 231.173 33.9312 231.2 31.5798C231.168 29.2415 231.773 26.9387 232.951 24.9186C234.07 22.97 235.714 21.3747 237.695 20.3145C239.833 19.1786 242.224 18.6034 244.645 18.6426C246.769 18.6059 248.87 19.0802 250.772 20.0256C252.549 20.9168 254.018 22.319 254.991 24.052L251.595 26.2403L251.49 26.3104C250.759 25.154 249.736 24.2118 248.523 23.5794C247.302 22.9751 245.954 22.6748 244.592 22.7041C243.028 22.6665 241.48 23.028 240.093 23.7544C238.778 24.4971 237.698 25.5952 236.977 26.9231C236.22 28.3533 235.84 29.9531 235.874 31.571C235.842 33.2195 236.221 34.8502 236.977 36.3152C237.707 37.6202 238.786 38.6962 240.093 39.4226C241.477 40.1687 243.029 40.5483 244.601 40.5255C245.963 40.5551 247.311 40.2548 248.531 39.6502C249.748 39.0067 250.772 38.0523 251.499 36.8842Z" fill="#090000"/>
<path d="M225.616 18.8789H221.012V44.2718H225.616V18.8789Z" fill="#090000"/>
<path d="M198.98 37.0426C198.998 38.1375 198.734 39.2187 198.215 40.1827C197.695 41.1467 196.937 41.9612 196.013 42.5483C194.061 43.8963 191.4 44.5615 188.012 44.5615C185.985 44.5692 183.968 44.2952 182.016 43.7475C180.396 43.3143 178.871 42.5842 177.517 41.5942L179.434 37.9529C180.678 38.8083 182.053 39.4557 183.504 39.8699C185.075 40.3411 186.705 40.5828 188.345 40.5876C192.371 40.5876 194.384 39.4322 194.384 37.1389C194.399 36.7931 194.333 36.4486 194.192 36.1326C194.051 35.8166 193.838 35.5378 193.57 35.3182C192.966 34.8417 192.259 34.512 191.505 34.3554L188.056 33.6376C186.364 33.3875 184.693 33.0101 183.058 32.5085C181.794 32.1035 180.656 31.3766 179.758 30.399C178.771 29.2433 178.272 27.7493 178.366 26.2325C178.341 25.1469 178.59 24.0725 179.092 23.1097C179.594 22.1469 180.332 21.3271 181.237 20.7267C183.157 19.3146 185.731 18.6114 188.958 18.6172C190.669 18.6168 192.374 18.8255 194.034 19.2387C195.506 19.5621 196.914 20.1271 198.201 20.9105L196.188 24.5781C193.991 23.2068 191.441 22.5099 188.852 22.5736C187.308 22.4798 185.768 22.8097 184.397 23.5277C183.936 23.7729 183.55 24.1385 183.281 24.5854C183.011 25.0324 182.867 25.5441 182.865 26.0661C182.851 26.4394 182.923 26.8109 183.075 27.1523C183.227 27.4936 183.454 27.7957 183.741 28.0356C184.362 28.5309 185.081 28.8889 185.85 29.086L189.448 29.8563C191.118 30.1207 192.768 30.5039 194.384 31.0029C195.632 31.3664 196.758 32.0623 197.641 33.0161C198.59 34.1349 199.07 35.5778 198.98 37.0426Z" fill="#090000"/>
<path d="M144.194 42.7941C143.457 43.3974 142.609 43.8521 141.699 44.1333C140.704 44.4215 139.672 44.5659 138.636 44.5622C137.558 44.6307 136.478 44.4841 135.457 44.1309C134.437 43.7778 133.497 43.2251 132.692 42.5053C131.257 41.1281 130.539 39.1616 130.539 36.6056V13.3223H135.134V18.8805H142.426V22.6619H135.178V36.4218C135.105 37.5641 135.465 38.6921 136.185 39.5817C136.577 39.9619 137.044 40.2563 137.557 40.4462C138.069 40.636 138.615 40.7172 139.161 40.6846C140.461 40.7176 141.731 40.2932 142.75 39.4854L144.194 42.7941Z" fill="#090000"/>
<path d="M87.8412 18.8803V21.5062L87.6486 21.4275C86.3267 20.3603 84.815 19.5526 83.1932 19.0466C82.8956 18.9591 82.5805 18.8715 82.2654 18.8015C82.0953 18.7573 81.9229 18.7222 81.749 18.6965L81.1975 18.6002C80.6543 18.535 80.1077 18.5029 79.5607 18.5039H78.9742C76.6663 18.4643 74.3882 19.0285 72.3656 20.1407C70.4461 21.1938 68.867 22.7729 67.814 24.6924C66.6645 26.7528 66.0844 29.0822 66.1333 31.4411V31.5986C66.1155 33.9233 66.6941 36.2137 67.814 38.251C68.8694 40.1687 70.4478 41.7472 72.3656 42.8026C74.3903 43.9084 76.6675 44.4694 78.9742 44.4307H79.4819C80.7492 44.4581 82.0123 44.2747 83.2195 43.888C84.7072 43.4396 86.1011 42.7248 87.3335 41.7785L87.5611 41.5947C87.7186 41.4722 87.8849 41.3584 88.0337 41.2183V44.2994H92.4103V18.9153L87.8412 18.8803ZM87.3422 35.3187C87.2188 35.5571 87.0814 35.788 86.9308 36.0102C86.7832 36.241 86.6225 36.4631 86.4494 36.6754C86.2835 36.8955 86.1053 37.1059 85.9155 37.3057C85.8192 37.4107 85.7229 37.5157 85.6266 37.6033C84.8552 38.4571 83.9082 39.134 82.8506 39.5872C81.7929 40.0405 80.6497 40.2595 79.4994 40.2292C75.1929 40.6669 70.3086 35.7826 70.7463 31.4761C70.3086 27.1695 75.1929 22.294 79.4994 22.7229C80.6496 22.6932 81.7927 22.9125 82.8502 23.3657C83.9078 23.819 84.8549 24.4955 85.6266 25.3489L85.9155 25.6465C86.1053 25.8462 86.2835 26.0567 86.4494 26.2767C86.6245 26.4955 86.782 26.7144 86.9308 26.9419C87.0795 27.1654 87.2168 27.3962 87.3422 27.6334C88.0119 28.8074 88.3167 30.1544 88.2175 31.5023C88.3062 32.8328 88.0018 34.1599 87.3422 35.3187Z" fill="#090000"/>
<path d="M168.703 18.879V21.5049L168.545 21.3824C167.223 20.3153 165.712 19.5075 164.09 19.0015C163.775 18.9052 163.468 18.8177 163.162 18.7564C162.992 18.7122 162.819 18.6771 162.646 18.6514L162.094 18.5551C161.54 18.4827 160.981 18.4447 160.422 18.4413H159.836C157.528 18.4025 155.25 18.9667 153.227 20.0782C151.308 21.1312 149.729 22.7103 148.676 24.6298C147.525 26.6899 146.945 29.0195 146.995 31.3785V31.536C146.978 33.8606 147.556 36.1509 148.676 38.1884C149.731 40.1062 151.309 41.6846 153.227 42.7401C155.252 43.8447 157.529 44.4056 159.836 44.3681H160.3C161.568 44.3899 162.831 44.2006 164.037 43.8079C165.525 43.3595 166.919 42.6447 168.151 41.6984L168.379 41.5146C168.536 41.3921 168.703 41.2783 168.852 41.1382V44.2193H173.228V18.8352L168.703 18.879ZM160.3 40.2016C155.993 40.6393 151.109 35.7551 151.547 31.4485C151.109 27.142 155.993 22.2665 160.3 22.6954C164.606 22.2577 169.482 27.1332 169.053 31.4485C169.526 35.7551 164.676 40.6393 160.3 40.2016Z" fill="#090000"/>
<path d="M64.5228 43.9842C63.4622 44.3692 62.3423 44.5647 61.2141 44.5619C60.1775 44.6294 59.138 44.4857 58.1585 44.1397C57.179 43.7936 56.28 43.2524 55.5158 42.5487C54.8168 41.7711 54.2795 40.8622 53.9354 39.8748C53.5912 38.8875 53.4471 37.8415 53.5113 36.7979V8.72656H58.1067V36.4215C58.0332 37.5568 58.3754 38.68 59.0696 39.5814C59.4565 39.9668 59.9216 40.2648 60.4335 40.455C60.9454 40.6453 61.4922 40.7235 62.0369 40.6843C62.8129 40.6903 63.5808 40.526 64.2864 40.2029L64.5228 43.9842Z" fill="#090000"/>
<path d="M123.536 29.6627V44.2717H118.932V30.1879C118.932 27.7312 118.349 25.8784 117.182 24.6296C116.513 23.9809 115.715 23.4792 114.841 23.1566C113.967 22.834 113.035 22.6977 112.105 22.7565C111.023 22.6985 109.94 22.8646 108.925 23.2441C107.91 23.6236 106.984 24.2085 106.205 24.9623C104.77 26.3978 104.052 28.4635 104.052 31.1945V44.2717H99.4566V18.8876H103.833V22.7214C104.78 21.3922 106.072 20.3478 107.571 19.7016C109.284 18.9789 111.13 18.6211 112.989 18.6512C114.391 18.5768 115.793 18.7892 117.11 19.2753C118.427 19.7614 119.631 20.5111 120.648 21.4785C122.574 23.3167 123.536 26.0447 123.536 29.6627Z" fill="#090000"/>
<path d="M216.801 42.7941C216.068 43.3992 215.224 43.8542 214.315 44.1333C213.317 44.4221 212.282 44.5665 211.243 44.5622C210.167 44.631 209.088 44.4845 208.069 44.1313C207.05 43.7781 206.111 43.2253 205.308 42.5053C203.896 41.1281 203.19 39.1616 203.19 36.6056V13.3223H207.786V18.8805H215.068V22.6619H207.786V36.4218C207.709 37.5645 208.069 38.6937 208.792 39.5817C209.184 39.9628 209.651 40.2578 210.164 40.4477C210.676 40.6376 211.223 40.7183 211.768 40.6846C213.068 40.7176 214.338 40.2932 215.357 39.4854L216.801 42.7941Z" fill="#090000"/>
<path d="M226.43 10.923C226.441 11.3309 226.37 11.7368 226.219 12.1161C226.069 12.4953 225.843 12.8399 225.554 13.1288C225.266 13.4178 224.922 13.6446 224.542 13.7951C224.163 13.9457 223.757 14.0168 223.349 14.0041C222.934 14.0142 222.522 13.942 222.136 13.7918C221.75 13.6415 221.398 13.4162 221.099 13.1288C220.816 12.8561 220.592 12.5281 220.442 12.1652C220.291 11.8022 220.217 11.4122 220.224 11.0193C220.217 10.6265 220.291 10.2364 220.442 9.87348C220.592 9.51056 220.816 9.18252 221.099 8.90981C221.389 8.6161 221.736 8.38406 222.118 8.22762C222.5 8.07119 222.91 7.99359 223.322 7.99949C223.73 7.98681 224.137 8.05795 224.516 8.2085C224.895 8.35906 225.24 8.58583 225.528 8.8748C225.82 9.12872 226.052 9.44399 226.208 9.79807C226.364 10.1522 226.44 10.5363 226.43 10.923Z" fill="#090000"/>
</g>
<g clip-path="url(#clip1_2149_48047)">
<path d="M37.9406 12.8445V12.9222C37.9406 12.9792 37.9406 13.0363 37.9406 13.0957C37.9493 13.4827 37.936 13.8699 37.9009 14.2554C37.8822 14.4563 37.8565 14.6595 37.8285 14.865C37.7162 15.6162 37.5372 16.3564 37.2936 17.0772C37.2586 17.1822 37.2212 17.285 37.1862 17.39C37.1488 17.4927 37.1091 17.5978 37.0694 17.7005C37.0297 17.8032 36.9877 17.9082 36.9456 18.011C36.9012 18.1137 36.8569 18.2164 36.8102 18.3192L36.7588 18.4333C36.7214 18.5132 36.6794 18.6023 36.6326 18.6959L36.5626 18.8351C36.329 18.8214 36.1235 18.8146 35.9133 18.8146H35.6143C35.4391 18.8146 35.2616 18.8146 35.0818 18.8146C34.9019 18.8146 34.7711 18.8146 34.6146 18.8374H34.5352C34.3016 18.8557 34.0517 18.8808 33.8065 18.9151C33.7037 18.9287 33.5986 18.9424 33.4958 18.9607L33.2763 18.9972L33.1595 19.0224L30.9523 19.4493L31.0364 19.3694L31.0831 19.3237L31.1321 19.2735L31.2863 19.116C31.5277 18.8599 31.7524 18.5892 31.959 18.3055C32.0454 18.1913 32.1271 18.0772 32.2042 17.9539C32.2463 17.8945 32.2836 17.8352 32.321 17.7735C32.3584 17.7119 32.3981 17.6503 32.4331 17.5886C32.4681 17.527 32.5078 17.4676 32.5429 17.4037C32.5779 17.3398 32.613 17.2804 32.6457 17.2165C32.6784 17.1526 32.7344 17.0498 32.7764 16.9654C32.8185 16.8809 32.8839 16.7485 32.9306 16.6389C32.961 16.5727 32.9913 16.5088 33.017 16.4426C33.0427 16.3763 33.0591 16.3444 33.0801 16.2942C33.0853 16.2778 33.0915 16.2618 33.0988 16.2462C33.0988 16.2234 33.1151 16.2006 33.1245 16.18C33.1338 16.1595 33.1595 16.091 33.1758 16.0476C33.1922 16.0042 33.1922 16.0019 33.1992 15.9814L33.2483 15.8467C33.2833 15.744 33.3183 15.6435 33.3464 15.5408C33.365 15.486 33.3791 15.4335 33.3931 15.381C33.4071 15.3284 33.4211 15.2874 33.4328 15.2417C33.4427 15.2118 33.4506 15.1813 33.4561 15.1504C33.5192 14.9107 33.5706 14.6687 33.6103 14.4289C33.6116 14.416 33.6116 14.403 33.6103 14.3901C33.6473 14.18 33.6731 13.9682 33.6874 13.7555C33.6874 13.7029 33.6874 13.6504 33.6874 13.6002C33.699 13.3835 33.699 13.1663 33.6874 12.9495V12.9222C33.6874 12.7395 33.6874 12.5546 33.6687 12.3674C33.6687 12.2852 33.6547 12.2053 33.6453 12.1231C33.6466 12.1178 33.6466 12.1124 33.6453 12.1071C33.6453 12.0204 33.6266 11.9359 33.6126 11.8491C33.5986 11.7624 33.5893 11.6939 33.5752 11.6208C33.5612 11.5364 33.5449 11.4473 33.5239 11.3606C33.5168 11.3198 33.5074 11.2794 33.4958 11.2396C33.4958 11.2008 33.4795 11.1597 33.4701 11.1209V11.0912C33.4515 11.0227 33.4351 10.9542 33.4164 10.888V10.8697V10.8309C33.3931 10.7464 33.3697 10.6643 33.3417 10.5798C33.337 10.5671 33.3331 10.5541 33.33 10.541C33.3066 10.4634 33.281 10.388 33.2529 10.3127C33.1945 10.1437 33.1315 9.97707 33.0614 9.81041V9.79671C32.9726 9.58211 32.8769 9.37436 32.7694 9.1666L32.704 9.04104L32.5662 8.79219C32.5125 8.69859 32.4588 8.60498 32.4027 8.51366C32.349 8.42234 32.293 8.33559 32.2346 8.24883V8.23285L32.0454 7.99085L32.0174 7.95204C31.952 7.85616 31.8819 7.76255 31.8095 7.67123C31.7371 7.57991 31.6834 7.51142 31.618 7.44293V7.42695C31.5526 7.34705 31.4848 7.27171 31.4171 7.19865L31.4054 7.18495C31.3587 7.13244 31.312 7.08222 31.2629 7.03199L31.1929 6.95893C31.1158 6.87903 31.0387 6.80369 30.9593 6.73063L30.7257 6.52516L30.672 6.4795L30.5015 6.33339H30.4875C30.3287 6.20098 30.1628 6.07541 29.9923 5.95669C29.8218 5.83798 29.6513 5.72839 29.4738 5.61653C29.3874 5.56173 29.2963 5.50922 29.2052 5.459L28.9343 5.3106L28.647 5.16449C28.5512 5.11655 28.4555 5.07317 28.3574 5.02979C28.2639 4.98641 28.1682 4.94532 28.0724 4.90651C28.0145 4.88074 27.9552 4.85788 27.8949 4.83802C27.5592 4.70544 27.2152 4.5941 26.8649 4.5047C26.7644 4.4773 26.664 4.45219 26.5612 4.42936C26.3277 4.37685 26.1081 4.33576 25.8839 4.3038C25.428 4.23612 24.9666 4.2109 24.5058 4.22846H24.4031C24.2349 4.22846 24.0644 4.23531 23.8916 4.249C23.693 4.2627 23.4945 4.28553 23.2913 4.31521C23.1558 4.33576 23.0204 4.36087 22.8826 4.38827C22.8172 4.38827 22.7518 4.41566 22.6864 4.42936C22.5369 4.46361 22.3897 4.50013 22.2402 4.54123L21.96 4.62342C21.8665 4.65081 21.7731 4.68277 21.6797 4.71474C21.5863 4.7467 21.4952 4.77866 21.4017 4.81519C21.3083 4.85172 21.2172 4.88596 21.1238 4.92477C21.0304 4.96358 20.9393 5.0024 20.8505 5.04349L20.7875 5.02294C20.708 5.05795 20.6302 5.09448 20.5539 5.13253C20.4628 5.1759 20.374 5.22156 20.2853 5.26951L20.0307 5.40877L19.9746 5.44073L19.9163 5.47726C19.8485 5.51379 19.7808 5.55488 19.7154 5.59598C19.5799 5.68045 19.4468 5.7672 19.3183 5.85852C19.2833 5.87907 19.2506 5.90418 19.2156 5.9293L19.1431 5.98181C19.0123 6.07541 18.8839 6.17358 18.7601 6.27403L18.6667 6.35165C18.6153 6.39275 18.5639 6.43613 18.5149 6.48179C18.4658 6.52745 18.37 6.60963 18.2976 6.67812C18.2252 6.74661 18.1552 6.81282 18.0874 6.88131L17.9356 7.03884L17.8819 7.09363C17.8289 7.15147 17.7776 7.20854 17.7277 7.26486L17.674 7.3265L17.5619 7.45891L17.5012 7.53425C17.4568 7.58676 17.4148 7.63927 17.375 7.69406L17.361 7.71004C17.319 7.76712 17.2769 7.82191 17.2349 7.88127C17.1929 7.94063 17.1485 7.9977 17.1088 8.05934L16.9616 8.28765L16.9383 8.32189L16.8192 8.51366L16.7981 8.54791L16.7748 8.58672C16.7304 8.65978 16.6884 8.73283 16.6463 8.81502C16.1302 9.73406 15.7779 10.7323 15.6046 11.767C15.6046 11.8035 15.5906 11.84 15.5859 11.8743C15.5849 11.8895 15.5849 11.9047 15.5859 11.9199C15.5838 11.9258 15.5838 11.9323 15.5859 11.9382C15.5735 12.0112 15.5641 12.0873 15.5579 12.1665C15.5482 12.2316 15.542 12.2971 15.5392 12.3628C15.5275 12.4838 15.5205 12.6048 15.5159 12.7258C15.5147 12.7433 15.5147 12.7608 15.5159 12.7783C15.5159 12.8308 15.5159 12.8833 15.5159 12.9359C15.5159 12.9884 15.5159 13.0317 15.5159 13.0797C15.5159 13.1276 15.5159 13.1756 15.5159 13.2212C15.5159 13.3856 15.5159 13.5523 15.5275 13.7166C15.5264 13.7098 15.5264 13.7029 15.5275 13.6961C15.5275 13.7577 15.5275 13.8171 15.5392 13.8764C15.5392 13.8924 15.5392 13.9084 15.5392 13.9221C15.5392 14.0454 15.5649 14.171 15.5836 14.2942C15.5836 14.3604 15.6023 14.4289 15.614 14.4951C15.6256 14.5614 15.6373 14.6298 15.6513 14.6983C15.65 14.7158 15.65 14.7334 15.6513 14.7508C15.6513 14.8034 15.6723 14.8536 15.684 14.9038C15.7284 15.1093 15.7821 15.3125 15.8452 15.5157C15.8639 15.5841 15.8849 15.6526 15.9082 15.7211C15.9293 15.7896 15.9526 15.8581 15.9783 15.9243C15.9783 15.9471 15.9923 15.97 16.0017 15.9928C16.011 16.0156 16.0344 16.0841 16.0531 16.1298C16.1044 16.2668 16.1582 16.4015 16.2189 16.5339C16.2422 16.5887 16.2656 16.6435 16.2913 16.6982C16.3057 16.7333 16.3221 16.7676 16.3403 16.801C16.3917 16.9129 16.4478 17.0293 16.5038 17.132L16.5389 17.1959C16.5716 17.2599 16.6066 17.3238 16.644 17.3877C16.679 17.4516 16.7164 17.5156 16.7538 17.5795C16.8729 17.7781 16.9873 17.9722 17.1298 18.1617C17.1648 18.2142 17.2022 18.2667 17.2419 18.3169C17.2816 18.3671 17.3283 18.4333 17.3727 18.4904L17.4101 18.5384C17.4428 18.5817 17.4755 18.6251 17.5105 18.6662L17.6016 18.7781L17.6507 18.8351L17.702 18.8945C17.7324 18.9287 17.7628 18.9653 17.7955 18.9995L17.9309 19.1479L17.9426 19.1616L18.0874 19.31L18.2509 19.4698L18.4331 19.641L18.4588 19.6616L18.7764 19.9561L20.4558 21.5017L22.1935 23.0998L24.0457 24.8075L24.0714 24.8303L24.291 25.0335L24.0224 26.175L23.1768 29.7936L22.4761 29.1612L19.0637 26.0266L16.2306 23.4217L15.3827 22.6432L15.2543 22.5245L15.1632 22.44C15.1351 22.4103 15.1071 22.3852 15.0791 22.3578C14.9483 22.23 14.8198 22.0998 14.696 21.9652L14.5255 21.7802L14.5139 21.7665L14.4812 21.7232C14.3784 21.6067 14.2756 21.4949 14.1752 21.3647C14.1308 21.3099 14.0864 21.2529 14.0397 21.1981L14.007 21.1547L13.986 21.1296L13.8388 20.9378C13.7291 20.794 13.6216 20.6456 13.5189 20.4949L13.3647 20.2666L13.346 20.2392L13.1989 20.0109L13.0681 19.8009L13.0564 19.7803C13.012 19.7095 12.97 19.6365 12.9279 19.5657C12.9284 19.5596 12.9284 19.5535 12.9279 19.5474C12.8836 19.4744 12.8438 19.399 12.8018 19.3191L12.7784 19.2758C12.6967 19.1297 12.6196 18.9813 12.5449 18.8192C12.4888 18.7073 12.4328 18.5909 12.3814 18.4813C12.33 18.3717 12.2973 18.3009 12.2576 18.2096L12.2085 18.0955C12.1898 18.0584 12.1734 18.0203 12.1595 17.9813C12.0871 17.8078 12.017 17.6343 11.9493 17.4585C11.9503 17.4494 11.9503 17.4402 11.9493 17.4311C11.9119 17.3238 11.8722 17.2188 11.8372 17.1115C11.8021 17.0042 11.7578 16.8832 11.7227 16.7622C11.6527 16.5339 11.5873 16.3056 11.5312 16.0773C11.4424 15.7272 11.37 15.3779 11.314 15.0294C11.2603 14.6938 11.2206 14.3582 11.1995 14.0271C11.1755 13.7119 11.1677 13.3957 11.1762 13.0797C11.1762 13.018 11.1762 12.9587 11.1762 12.897C11.1762 12.8354 11.1762 12.7669 11.1762 12.7007C11.1738 12.6589 11.1738 12.617 11.1762 12.5751C11.175 12.5584 11.175 12.5416 11.1762 12.5249V12.5089C11.1749 12.4983 11.1749 12.4876 11.1762 12.477C11.1762 12.3925 11.1762 12.3103 11.1762 12.2258C11.1762 12.1414 11.1762 12.05 11.1949 11.9587C11.1949 11.9587 11.1949 11.9222 11.1949 11.9039C11.2112 11.7236 11.2322 11.5409 11.2579 11.3583C11.2579 11.3583 11.2579 11.3377 11.2579 11.3286C11.2579 11.2693 11.2743 11.2099 11.286 11.1505C11.286 11.13 11.286 11.1072 11.286 11.0843C11.286 11.0615 11.286 11.0455 11.286 11.025L11.3 10.9519L11.342 10.7236C11.3817 10.5204 11.4284 10.3195 11.4775 10.1163C11.9834 8.15987 12.9191 6.33456 14.2196 4.76725C14.2779 4.69647 14.3363 4.6257 14.3971 4.55721L14.4251 4.52525C14.633 4.29695 14.8502 4.06865 15.0744 3.84034C15.4306 3.49412 15.8073 3.16861 16.2025 2.8655C16.3357 2.76276 16.4711 2.6646 16.6066 2.56643C16.7421 2.46826 16.8822 2.37694 17.02 2.28333C17.305 2.09841 17.5946 1.92262 17.8936 1.75596C18.0267 1.6829 18.1622 1.60985 18.3 1.52766C19.0761 1.13016 19.8885 0.804555 20.7267 0.555095L20.9603 0.484322C21.028 0.463775 21.0934 0.445511 21.1612 0.42953L21.4882 0.345059C21.7217 0.290266 21.9553 0.24004 22.1889 0.196663C22.5415 0.132739 22.8896 0.0825126 23.2329 0.0505505C23.579 0.0163028 23.9267 -0.000461576 24.2746 0.000324329H24.5432C24.911 -0.00708378 25.279 0.00358372 25.6457 0.0322865C25.9399 0.0551165 26.2389 0.0916447 26.5402 0.137305C26.9653 0.202751 27.3896 0.289505 27.8132 0.397568C28.0607 0.461492 28.3083 0.532265 28.5559 0.612171L28.7147 0.662397C28.8852 0.719472 29.0557 0.77883 29.2262 0.842754C29.3127 0.872434 29.3991 0.906679 29.4855 0.940924L29.8989 1.11215C29.9845 1.14868 30.071 1.18749 30.1582 1.22858C30.2446 1.26739 30.3287 1.30621 30.4104 1.3473L30.6557 1.46602H30.672C30.7514 1.50483 30.8285 1.54592 30.9056 1.58702L30.9289 1.60071L31.1625 1.724L31.3587 1.83586L31.4428 1.88381L31.6623 2.01622L31.6904 2.03448L31.9052 2.1669L31.9356 2.18745L32.1061 2.29931C32.286 2.41803 32.4588 2.52761 32.6316 2.6646H32.6457L32.7344 2.7308L32.8862 2.84495L33.0941 3.00933C33.316 3.18512 33.5285 3.36776 33.7317 3.55497L33.9957 3.8061C34.0961 3.90427 34.1942 4.00244 34.29 4.10517C34.3857 4.20791 34.5235 4.36087 34.645 4.49329L34.673 4.52525L34.8856 4.77638C36.0272 6.17867 36.8828 7.78223 37.4057 9.49992C37.4665 9.70083 37.5225 9.90401 37.5739 10.1049C37.6253 10.3058 37.6697 10.5113 37.7094 10.7122C37.7257 10.7921 37.7397 10.8743 37.7538 10.9542C37.763 10.9934 37.77 11.033 37.7748 11.0729C37.7748 11.1117 37.7748 11.1483 37.7911 11.1871C37.8075 11.2259 37.8051 11.2738 37.8122 11.3172C37.8131 11.3271 37.8131 11.337 37.8122 11.3469C37.8122 11.388 37.8122 11.4291 37.8285 11.4679C37.8449 11.5067 37.8285 11.5341 37.8285 11.566C37.8285 11.598 37.8285 11.6163 37.8285 11.6391C37.8295 11.6467 37.8295 11.6544 37.8285 11.6619C37.8285 11.6939 37.8285 11.7236 37.8285 11.7533C37.8295 11.7585 37.8295 11.7639 37.8285 11.7692L37.8425 11.9199C37.8425 12.0204 37.8589 12.1185 37.8635 12.219C37.8682 12.3194 37.8635 12.3856 37.8752 12.4701C37.8764 12.4868 37.8764 12.5036 37.8752 12.5203C37.9406 12.6505 37.9406 12.7486 37.9406 12.8445Z" fill="#170000" fill-opacity="0.6"/>
<path d="M49 31.6581C49 31.7449 49 31.8294 49 31.9161C49.0092 32.297 48.9967 32.6781 48.9626 33.0576C48.9626 33.1581 48.9439 33.2585 48.9323 33.359C48.9089 33.5645 48.8809 33.7722 48.8435 33.9777C48.8272 34.0736 48.8085 34.1695 48.7898 34.2653C48.7711 34.3612 48.7501 34.4662 48.7267 34.5667C48.6894 34.7402 48.6473 34.9114 48.6006 35.0827C48.5796 35.1626 48.5586 35.2425 48.5329 35.311C48.4838 35.4867 48.4301 35.6603 48.3717 35.8338C48.346 35.9114 48.3203 35.9867 48.2923 36.0621C48.2643 36.1374 48.2199 36.263 48.1825 36.3611C48.1451 36.4593 48.1054 36.5598 48.0657 36.6579C47.9863 36.8543 47.8999 37.0483 47.8111 37.2424C47.7668 37.3406 47.7201 37.4364 47.6733 37.5323C47.6266 37.6282 47.5776 37.7241 47.5285 37.8177C47.3791 38.1031 47.2202 38.3839 47.0614 38.6578C46.9493 38.8405 46.8278 39.0208 46.7134 39.1966C46.6527 39.2857 46.5919 39.3747 46.5289 39.4615C46.4658 39.5482 46.4051 39.635 46.3397 39.7194L46.1458 39.9729C46.0781 40.055 46.0127 40.1395 45.945 40.2194C45.8772 40.2993 45.8212 40.3655 45.7604 40.4477L45.7371 40.4728C45.6693 40.5527 45.5969 40.6304 45.5245 40.7011C45.3821 40.8564 45.2349 41.0093 45.0854 41.1577C44.8892 41.3472 44.6884 41.5322 44.4781 41.7125C44.2679 41.8929 44.0507 42.0641 43.8288 42.233L43.7354 42.3015L43.6023 42.3974L43.3687 42.5572C43.2146 42.6645 43.0557 42.7673 42.9016 42.8677L42.8081 42.9248L42.6587 43.0161H42.6446C42.4882 43.1097 42.3317 43.1988 42.1775 43.2855H42.1612L41.9159 43.4156C41.5749 43.5922 41.2269 43.7558 40.8719 43.9065C40.6967 43.9795 40.5192 44.0503 40.3417 44.1165H40.3253L40.0731 44.2078L39.8021 44.2992L39.5312 44.3859L39.2392 44.5183C38.952 44.6005 38.667 44.6736 38.3821 44.7466C38.2419 44.7786 38.0994 44.806 37.9593 44.8334L37.8355 44.8539C37.6019 44.8973 37.352 44.9316 37.1115 44.9589C36.9713 44.9749 36.8335 44.9886 36.6934 44.9978C36.4178 45.0183 36.1421 45.0297 35.8735 45.0297H35.7357H35.6003C35.5092 45.0297 35.4181 45.0297 35.327 45.0297H35.0117H34.7267H34.694L34.3974 45.0092L34.2246 44.9932H34.1428C32.078 44.7463 30.0965 44.048 28.3457 42.9499L28.2709 42.902L28.2429 42.886L28.1915 42.854C27.958 42.7011 27.7244 42.5435 27.5025 42.3792L27.2689 42.2011L27.0354 42.0253L26.7714 41.797L26.5379 41.5984V54.0499H22.2146V41.7787C22.2683 41.7353 22.322 41.6897 22.3757 41.6395L22.5392 41.4956L22.6443 41.3975L22.7027 41.3427L22.8662 41.1851C23.0017 41.0527 23.1371 40.9157 23.2679 40.7742C23.3987 40.6349 23.5249 40.4934 23.6487 40.3473C23.7094 40.2765 23.7678 40.2034 23.8285 40.119L24.0037 39.8907C24.0621 39.8153 24.1205 39.7377 24.1765 39.6624C24.2326 39.587 24.2933 39.5026 24.3494 39.4341C24.4054 39.3656 24.4358 39.3131 24.4755 39.2491C25.0939 38.3366 25.5996 37.3557 25.982 36.3269C26.0365 36.1747 26.0879 36.0286 26.1361 35.8886C26.2389 35.5758 26.3323 35.2607 26.4118 34.9457C26.4304 34.8772 26.4468 34.8087 26.4608 34.7425C26.4771 34.674 26.4912 34.6055 26.5075 34.5416V34.5073V34.4914L26.6617 33.8316C26.728 34.1304 26.8115 34.4254 26.9116 34.7151C26.9173 34.7386 26.9251 34.7615 26.9349 34.7836C27.0003 34.9754 27.0727 35.1671 27.1545 35.3566C27.1965 35.4601 27.2409 35.5606 27.2876 35.658C27.3203 35.7333 27.3577 35.8064 27.3951 35.8863C27.4114 35.9228 27.4301 35.9571 27.4488 35.9936C27.4525 36.0039 27.4572 36.0138 27.4628 36.0233C27.4768 36.0484 27.4885 36.0758 27.5048 36.1009C27.5399 36.1717 27.5796 36.2401 27.617 36.3086C27.6265 36.3213 27.6343 36.3351 27.6403 36.3497C27.6894 36.4365 27.7384 36.521 27.7921 36.6054C27.8458 36.6899 27.8879 36.7607 27.9369 36.8337L27.9696 36.8839C27.9953 36.9182 28.0164 36.9524 28.0397 36.9867L28.1261 37.1145L28.1472 37.1419L28.2172 37.2378C28.2616 37.3017 28.3083 37.3657 28.3574 37.4273L28.4765 37.5757C28.5045 37.6145 28.5349 37.651 28.5629 37.6853C28.5909 37.7195 28.6446 37.7812 28.6867 37.8268C28.8579 38.0283 29.0404 38.2204 29.2332 38.4022C29.4327 38.5925 29.6425 38.7724 29.8615 38.9409L29.9993 39.046C30.0601 39.0939 30.1231 39.1396 30.1862 39.1852C30.2493 39.2309 30.3006 39.2651 30.359 39.3017C30.4174 39.3382 30.4828 39.3861 30.5435 39.4249C30.6136 39.4683 30.6837 39.514 30.7561 39.5551L30.8892 39.635C30.9359 39.6624 30.9827 39.6898 31.0317 39.7149C31.1228 39.7674 31.2162 39.8176 31.3096 39.8656L31.361 39.8907C31.4685 39.9477 31.5759 40.0003 31.6857 40.0505L31.7721 40.0893C31.8749 40.138 31.98 40.1837 32.0874 40.2263L32.2836 40.3039C32.4565 40.3724 32.6316 40.434 32.8091 40.4911L32.8652 40.5071C32.8775 40.514 32.8909 40.5187 32.9049 40.5208L33.0077 40.5527C33.1245 40.587 33.2412 40.619 33.3557 40.6486C33.6524 40.7261 33.9535 40.7871 34.2573 40.8313C34.3787 40.8526 34.5002 40.8686 34.6216 40.8792H34.6473L34.8412 40.8975C34.9696 40.8975 35.0958 40.9135 35.2242 40.918C35.3947 40.918 35.5536 40.918 35.6914 40.918H35.7778C36.1368 40.9173 36.4952 40.8898 36.8499 40.8358C37.0297 40.8107 37.2095 40.7788 37.3917 40.74C37.5739 40.7011 37.7701 40.6532 37.9593 40.6007L38.2256 40.5208H38.305L38.4148 40.4843C38.5642 40.4363 38.7114 40.3838 38.8585 40.3267L39.1668 40.2057C39.3093 40.1464 39.4518 40.0824 39.5919 40.014L39.6643 39.9797L39.8979 39.8541H39.9166L40.1758 39.7126C40.5334 39.5128 40.8761 39.2885 41.2012 39.0414H41.2152L41.4021 38.8953L41.4558 38.8519C41.6902 38.6622 41.914 38.4602 42.1261 38.2469C42.2803 38.0917 42.4298 37.9296 42.5722 37.7606L42.6703 37.6442L42.6937 37.6145L42.8245 37.4479C42.8595 37.4022 42.8946 37.3588 42.9273 37.3132L42.9576 37.2721C42.9647 37.2616 42.9725 37.2517 42.981 37.2424C43.0487 37.1488 43.1141 37.0529 43.1795 36.957L43.2005 36.925L43.2286 36.8817L43.3173 36.7447C43.3944 36.6214 43.4668 36.4981 43.5369 36.3748C43.5742 36.3109 43.6069 36.2493 43.642 36.1854C43.677 36.1214 43.7097 36.0598 43.7401 35.9959C43.7704 35.9319 43.8055 35.8657 43.8358 35.8018C43.8662 35.7379 43.8989 35.674 43.9269 35.6077C43.955 35.5415 43.9853 35.4776 44.0134 35.4114C44.0414 35.3452 44.0484 35.3315 44.0624 35.2927C44.0764 35.2539 44.0834 35.2402 44.0951 35.2151L44.1185 35.1534C44.1441 35.0872 44.1698 35.021 44.1932 34.9548C44.2166 34.8886 44.2422 34.8224 44.2633 34.7562C44.2843 34.69 44.3123 34.6124 44.3333 34.5416C44.3684 34.432 44.4011 34.3133 44.4291 34.2105C44.4431 34.1603 44.4571 34.1124 44.4665 34.0644C44.5595 33.7028 44.6259 33.335 44.665 32.964C44.7048 32.6192 44.7181 32.272 44.7047 31.9253C44.7047 31.7632 44.7047 31.6011 44.6907 31.4344C44.648 30.7631 44.5193 30.0996 44.3076 29.4596C44.3048 29.4479 44.3009 29.4364 44.296 29.4254C44.2911 29.4042 44.284 29.3835 44.2749 29.3637C44.2609 29.315 44.2446 29.2671 44.2259 29.2199L44.1979 29.1423C44.1839 29.0989 44.1675 29.0578 44.1512 29.0167C44.144 28.9941 44.1354 28.972 44.1255 28.9505C44.0881 28.8516 44.0484 28.7534 44.0063 28.656L43.9853 28.6103L43.955 28.5464C43.9223 28.4703 43.8872 28.3942 43.8499 28.3181C43.8125 28.242 43.7845 28.1849 43.7658 28.1469C43.7354 28.0807 43.7027 28.0145 43.6653 27.9505C43.628 27.8866 43.621 27.8638 43.5976 27.8204C43.5275 27.6903 43.4505 27.5601 43.364 27.4323C43.2776 27.3044 43.2005 27.172 43.1118 27.0465C43.0978 27.0259 43.0838 27.0031 43.0674 26.9825L42.981 26.8593L42.8525 26.6903C42.8423 26.6728 42.8297 26.6567 42.8152 26.6424L42.7054 26.4985L42.5699 26.3365L42.5466 26.3113C42.5045 26.2588 42.4578 26.2063 42.4134 26.1561C42.369 26.1059 42.3433 26.0785 42.306 26.0419C42.2686 26.0054 42.1845 25.9118 42.1238 25.8502C42.1162 25.8439 42.1092 25.837 42.1028 25.8296C42.0514 25.7771 42 25.7269 41.9463 25.6767L41.7921 25.5328L41.7197 25.4689L41.638 25.3981H41.624C41.5375 25.3251 41.4511 25.2543 41.36 25.1835L41.3157 25.147L41.2876 25.1265C41.2082 25.0648 41.1265 25.0055 41.0424 24.9438L40.9676 24.8913L40.9303 24.8662L40.7901 24.7703L40.7481 24.7429L40.6079 24.6516C40.4701 24.5648 40.3277 24.4804 40.1829 24.3982L40.045 24.3228L39.9119 24.2521L39.7928 24.1904L39.5966 24.0945L39.4611 24.0306C39.3747 23.9895 39.286 23.9507 39.1972 23.9142C39.1084 23.8777 39.0617 23.8571 38.994 23.832C38.9263 23.8069 38.8609 23.7772 38.7931 23.7544C38.6577 23.7019 38.5222 23.6539 38.3844 23.6128C38.317 23.5881 38.2484 23.5668 38.1789 23.5489C37.6461 23.3877 37.0985 23.2776 36.5439 23.2201C36.2834 23.191 36.0213 23.1766 35.7591 23.1768C35.7124 23.1768 35.6657 23.1768 35.619 23.1768C35.5746 23.1745 35.5302 23.1745 35.4858 23.1768H35.4064C35.0269 23.1772 34.6481 23.2077 34.2736 23.2681C34.1755 23.2818 34.0751 23.2978 33.977 23.316C33.8789 23.3343 33.7808 23.3526 33.685 23.3754L32.7017 23.5603L28.9389 24.2658L24.7161 25.0534L24.3984 25.115H24.3704H24.3096L24.2583 25.0694L22.2099 23.1836L20.4745 21.5855L21.2663 21.4303H21.2873L22.2216 21.2522L24.3844 20.8298L25.37 20.6381L26.5379 20.4098L29.997 19.7249L33.1478 19.113L33.2623 19.0925C33.4958 19.0514 33.7294 19.0148 33.963 18.9874C34.0821 18.9715 34.1965 18.9601 34.3157 18.9486C34.4862 18.9327 34.6567 18.9212 34.8225 18.9121C34.993 18.9121 35.1588 18.9121 35.3247 18.9121H35.7381C35.8852 18.9121 36.037 18.9121 36.2052 18.9121C36.3197 18.9121 36.4388 18.9121 36.5532 18.9281C36.6677 18.9441 36.8545 18.9509 37.0063 18.9669C37.1582 18.9829 37.296 18.9989 37.4408 19.0194H37.4618L37.616 19.0445C37.7187 19.0582 37.8192 19.0765 37.9196 19.0948C38.0597 19.1176 38.2022 19.1473 38.3423 19.1769C38.4334 19.1952 38.5245 19.2158 38.618 19.2409L38.7955 19.282C38.9473 19.3208 39.0968 19.3596 39.2486 19.4052C39.3545 19.4357 39.4596 19.4676 39.5639 19.5011L39.7531 19.5605C39.9049 19.6084 40.0521 19.6609 40.2015 19.7157C40.5028 19.8253 40.7995 19.944 41.0938 20.0764C41.2409 20.1427 41.3881 20.2089 41.5329 20.2796C41.6777 20.3504 41.8061 20.4143 41.9416 20.4851C41.9495 20.4871 41.9568 20.491 41.9626 20.4965C42.0958 20.565 42.2266 20.6381 42.3574 20.7134C42.4438 20.7613 42.5302 20.8116 42.6143 20.8641C42.6984 20.9166 42.8479 21.0011 42.9576 21.0764C43.1748 21.2111 43.3897 21.3549 43.5976 21.5056C43.7284 21.6015 43.8592 21.6974 43.9853 21.7955C44.1138 21.896 44.2376 21.9965 44.3614 22.0992C44.4852 22.2019 44.5949 22.3069 44.7211 22.412C44.8402 22.5193 44.9546 22.6403 45.0691 22.7384C45.2186 22.8845 45.3657 23.0375 45.5082 23.195C45.5806 23.2727 45.653 23.3503 45.7207 23.4233L45.7441 23.4484C45.8048 23.5215 45.8679 23.5923 45.9286 23.6767C45.9893 23.7612 46.0617 23.8411 46.1295 23.9233L46.3233 24.1767C46.3887 24.2612 46.4518 24.348 46.5125 24.4347C46.5732 24.5215 46.6363 24.6105 46.697 24.6995C46.8162 24.8753 46.9306 25.0557 47.045 25.2383C47.2062 25.5054 47.3604 25.7794 47.5122 26.0579C47.4818 26.0009 47.4538 25.9415 47.4234 25.8821C47.4585 25.9461 47.4912 26.0123 47.5239 26.0785C47.5566 26.1447 47.6243 26.268 47.6687 26.3638C47.685 26.3958 47.7014 26.4255 47.7154 26.4575C47.7294 26.4894 47.7784 26.5876 47.8065 26.6538C47.8952 26.8478 47.9817 27.0419 48.0611 27.2382C48.1008 27.3364 48.1405 27.4369 48.1779 27.535C48.2152 27.6332 48.2526 27.7337 48.2876 27.8341C48.3227 27.9346 48.3413 27.9871 48.367 28.0624C48.4262 28.2359 48.4799 28.4094 48.5282 28.5829C48.5539 28.6628 48.5749 28.7427 48.5959 28.8112C48.6426 28.9825 48.6847 29.1537 48.7221 29.3272C48.7454 29.4276 48.7664 29.5281 48.7851 29.6285C48.8038 29.7244 48.8225 29.8203 48.8388 29.9162C48.8762 30.1217 48.9042 30.3294 48.9276 30.5349C48.9276 30.6354 48.9486 30.7358 48.958 30.8363C48.986 31.0646 49 31.3636 49 31.6581Z" fill="#090000"/>
<path d="M28.9413 24.1697L26.699 33.7743L26.5449 34.4409V34.4569V34.4911C26.5309 34.5551 26.5145 34.6235 26.4982 34.692L26.4491 34.8952C26.3697 35.2103 26.2763 35.5253 26.1735 35.8381C26.1245 35.9842 26.0731 36.1326 26.0194 36.2764C25.637 37.3052 25.1313 38.2862 24.5128 39.1987L24.3867 39.3836C24.2746 39.5434 24.1532 39.701 24.041 39.8539L23.8589 40.0822L23.6814 40.3105C23.5576 40.4566 23.4314 40.5982 23.303 40.7374C23.1745 40.8767 23.032 41.0228 22.8942 41.1575L22.6723 41.3698C22.5898 41.4459 22.5081 41.522 22.4271 41.5981C22.4197 41.6069 22.411 41.6146 22.4014 41.621L22.2402 41.7602C22.0931 41.8858 21.9413 42.0068 21.7871 42.1255L21.5536 42.3013C21.4765 42.3607 21.3971 42.4177 21.32 42.4748L21.3013 42.4885H21.2873L21.0374 42.6597L20.8295 42.7922C19.7419 43.4846 18.5634 44.0299 17.326 44.4131C17.1391 44.4702 16.9523 44.525 16.7631 44.5752C16.5739 44.6254 16.4291 44.6597 16.2609 44.6985L16.1885 44.7144L15.9153 44.7692C15.5392 44.8446 15.1632 44.8994 14.7895 44.9382C14.6026 44.9564 14.4181 44.9701 14.2336 44.9816H14.1518C13.993 44.9816 13.8388 44.9816 13.6847 44.9816H13.5562H13.4208H13.1498C12.8485 44.9816 12.5449 44.9679 12.2389 44.9427L12.1151 44.9313L11.9306 44.9131H11.9096L11.6246 44.8765C11.5429 44.8765 11.4635 44.8537 11.3911 44.8423L11.2252 44.8149L11.0127 44.7761L10.6693 44.7464L10.361 44.6756C10.2583 44.6528 10.1555 44.6254 10.0527 44.598L9.81916 44.5364L9.73974 44.5135L9.55756 44.4587L9.45713 44.4291H9.43143C9.2259 44.3651 9.02269 44.2967 8.81949 44.2213L8.51819 44.1072L8.21689 43.9862C7.21537 43.5707 6.26626 43.0436 5.38839 42.4155C5.22723 42.299 5.0684 42.1872 4.92126 42.0593L4.88622 42.0296C4.72039 41.8972 4.55689 41.7625 4.39807 41.621C4.23924 41.4794 4.08275 41.3379 3.93093 41.1918C3.77911 41.0456 3.6343 40.8927 3.49183 40.7352C3.41942 40.6575 3.34935 40.5799 3.27928 40.5069C3.27277 40.4974 3.2649 40.489 3.25593 40.4817C3.1952 40.4087 3.13213 40.3379 3.07141 40.2534C3.01068 40.169 2.93827 40.0891 2.87054 40.0069L2.67668 39.7535C2.61128 39.669 2.54822 39.5822 2.48749 39.4955C2.42676 39.4087 2.3637 39.3197 2.30297 39.2307C2.18385 39.0549 2.06941 38.8745 1.95496 38.6919C1.78913 38.4179 1.6303 38.1371 1.48782 37.8517C1.43877 37.7581 1.39206 37.6622 1.34301 37.5663C1.29396 37.4705 1.24959 37.3746 1.20521 37.2764C1.11645 37.0823 1.03003 36.8883 0.95062 36.692C0.910914 36.5938 0.871207 36.4933 0.833837 36.3952C0.796466 36.297 0.759095 36.1965 0.72406 36.0961C0.689025 35.9956 0.67034 35.9454 0.644647 35.8678C0.586256 35.6943 0.532535 35.5208 0.483486 35.345C0.457794 35.2651 0.436773 35.1852 0.415752 35.1167C0.369038 34.9455 0.326996 34.7742 0.289626 34.6007C0.266269 34.5003 0.245248 34.3998 0.226563 34.2994C0.207877 34.2035 0.189192 34.1076 0.172842 34.0117C0.135472 33.8062 0.107444 33.5985 0.0840869 33.393C0.0840869 33.2926 0.0630658 33.1921 0.0537232 33.0916C0.0196215 32.7121 0.00714534 32.331 0.0163524 31.9501C0.00574142 31.5326 0.0205602 31.1149 0.0607302 30.6991C0.0607302 30.6625 0.0607302 30.6237 0.0724085 30.5849C0.109779 30.2539 0.161164 29.916 0.231234 29.5781C0.268605 29.3863 0.310647 29.1946 0.35736 29.0051L0.42743 28.7311C0.428443 28.7266 0.428443 28.7219 0.42743 28.7174C0.485822 28.5028 0.551221 28.2859 0.621291 28.0713L0.700703 27.7928L0.791795 27.5439L0.889893 27.2837C0.890797 27.2769 0.890797 27.2699 0.889893 27.2631L0.994998 27.0029C1.0347 26.9115 1.07441 26.8179 1.11645 26.7243C1.11519 26.7183 1.11519 26.7121 1.11645 26.7061C1.15382 26.6193 1.19353 26.5348 1.23324 26.4481C1.32199 26.2655 1.41308 26.0805 1.50884 25.9002C1.53687 25.8454 1.5649 25.7906 1.5976 25.7381C1.71127 25.5265 1.83272 25.3165 1.96196 25.108C2.0297 24.9961 2.1021 24.8797 2.17217 24.7792C2.20487 24.7267 2.23757 24.6765 2.27494 24.6263C2.34034 24.5281 2.41041 24.4299 2.48048 24.3317L2.61362 24.1468V24.1331C2.76543 23.9299 2.92426 23.7313 3.08075 23.5395L3.09476 23.5236C3.12046 23.4916 3.14615 23.4619 3.17418 23.4322C3.30731 23.277 3.44278 23.1263 3.58292 22.9756C3.68335 22.8706 3.78145 22.7702 3.88422 22.6697C3.98699 22.5693 4.03137 22.5259 4.11779 22.4574C4.20421 22.3889 4.25559 22.3318 4.32566 22.2702C4.39573 22.2085 4.47281 22.1401 4.55923 22.0761L4.7928 21.8866C4.80483 21.874 4.81813 21.8625 4.8325 21.8524C4.91892 21.7816 5.00534 21.7131 5.0941 21.6469C5.24981 21.5282 5.41097 21.4118 5.57758 21.2976C5.66166 21.2406 5.74575 21.1812 5.83217 21.1264C5.99333 21.0191 6.15683 20.9186 6.32032 20.8182C6.41842 20.7588 6.51885 20.6995 6.62162 20.6424L6.89023 20.494C7.07007 20.3958 7.25225 20.3022 7.43677 20.2155C7.9563 19.9625 8.49142 19.7414 9.03904 19.5534L9.18852 19.5009C9.34735 19.4484 9.50618 19.4004 9.65566 19.3525C9.85419 19.2931 10.0551 19.2406 10.2536 19.1927C10.3237 19.1744 10.3961 19.1584 10.4661 19.1448L10.7581 19.0808C10.9543 19.042 11.1482 19.0055 11.342 18.9758H11.3817C11.7585 18.9195 12.1322 18.8807 12.5028 18.8594C12.5239 18.8982 12.5425 18.9393 12.5636 18.9781C12.5846 19.0169 12.6056 19.058 12.6243 19.0968C12.7528 19.3411 12.8882 19.5785 13.0307 19.8137C13.0727 19.8844 13.1171 19.9529 13.1615 20.0214C13.2059 20.0899 13.2573 20.1744 13.3086 20.2497C13.36 20.3251 13.4091 20.4004 13.4605 20.478C13.5118 20.5556 13.5632 20.6287 13.617 20.7063L13.7781 20.9346C13.7853 20.9449 13.7931 20.9548 13.8015 20.9643L13.9673 21.1789L14.0023 21.2223C14.0467 21.2794 14.0911 21.3342 14.1378 21.3889C14.2382 21.5122 14.341 21.6309 14.4438 21.7474C14.6376 21.9757 14.8362 22.1743 15.0417 22.3752C15.0978 22.4323 15.1538 22.4848 15.2169 22.5419C15.2799 22.5989 15.301 22.6241 15.343 22.6629L16.1862 23.4391C15.9604 23.363 15.7338 23.2968 15.5065 23.2405C15.4201 23.2176 15.3337 23.1971 15.2472 23.1811C14.672 23.0506 14.0837 22.9832 13.4932 22.9802C13.448 22.9779 13.4028 22.9779 13.3577 22.9802C13.3126 22.9779 13.2674 22.9779 13.2222 22.9802C13.1171 22.9802 13.005 22.9802 12.8719 22.9802C12.5659 22.9912 12.2608 23.021 11.9586 23.0692C11.6703 23.1129 11.3849 23.1732 11.1038 23.2496C11.0524 23.2496 11.0033 23.2747 10.952 23.2907C10.7674 23.3409 10.5829 23.398 10.4007 23.4619C10.2933 23.4984 10.1882 23.5373 10.0831 23.5784C9.97798 23.6194 9.92192 23.6423 9.84952 23.6765L9.67434 23.7496H9.65566C9.58559 23.7793 9.51318 23.8112 9.44311 23.8455L9.41508 23.8592C9.25937 23.9292 9.10989 24.0053 8.96664 24.0875C8.85452 24.1468 8.73307 24.2085 8.63731 24.2747L8.51118 24.3477L8.47381 24.3728C8.39907 24.4162 8.32433 24.4642 8.25192 24.5144C8.17952 24.5646 8.10477 24.6103 8.03237 24.6628C7.95996 24.7153 7.91091 24.7473 7.85019 24.7952C7.84486 24.7936 7.83917 24.7936 7.83384 24.7952C7.7975 24.8183 7.76313 24.8443 7.73107 24.8728C7.48637 25.057 7.25244 25.2544 7.03037 25.4641C6.9673 25.5212 6.90658 25.5806 6.84585 25.6422C6.78512 25.7038 6.71038 25.7815 6.64498 25.8545C6.57958 25.9276 6.47681 26.0372 6.3974 26.133C6.382 26.1486 6.36794 26.1654 6.35536 26.1833C6.33004 26.2098 6.30663 26.238 6.28529 26.2677C6.27317 26.2788 6.26222 26.2911 6.25259 26.3043L6.23857 26.3225C6.18719 26.3865 6.13814 26.4504 6.08909 26.5166C6.00501 26.6239 5.92559 26.7449 5.85552 26.8453C5.84771 26.852 5.84203 26.8607 5.83917 26.8705C5.67001 27.111 5.51408 27.3602 5.37204 27.617C5.37204 27.617 5.37204 27.633 5.37204 27.6398C5.33934 27.6992 5.30664 27.7585 5.27628 27.8179V27.8384C5.20932 27.9663 5.14626 28.0964 5.08709 28.2288C5.02403 28.3658 4.9633 28.5074 4.90724 28.6489C4.80447 28.9046 4.71338 29.1603 4.63631 29.416C4.37698 30.2407 4.2586 31.1015 4.28595 31.9638C4.28116 32.5298 4.34307 33.0943 4.47047 33.6464C4.4985 33.7811 4.53354 33.9181 4.57324 34.0551C4.58959 34.1236 4.60828 34.1898 4.63163 34.2583C4.65499 34.3268 4.662 34.3633 4.68068 34.4158C4.69022 34.4529 4.70192 34.4895 4.71572 34.5254C4.72973 34.5733 4.74842 34.6213 4.76477 34.6692C4.78112 34.7172 4.81382 34.8039 4.83951 34.8724C4.8652 34.9409 4.89089 35.0071 4.92126 35.0756C4.92126 35.0961 4.93761 35.119 4.94695 35.1395C4.95629 35.1601 4.97264 35.2012 4.98666 35.2308C5.00067 35.2605 5.01702 35.3039 5.03337 35.3404L5.09643 35.4774C5.10591 35.5016 5.11682 35.5252 5.12913 35.5482C5.15949 35.6121 5.18986 35.676 5.22256 35.7399C5.22256 35.7559 5.23891 35.7719 5.24591 35.7856C5.27161 35.8358 5.2973 35.8861 5.32533 35.9363L5.43043 36.1303C5.46469 36.1943 5.50206 36.2582 5.54254 36.3221C5.58225 36.3929 5.62429 36.4614 5.66634 36.5276C5.70838 36.5938 5.73874 36.6417 5.77845 36.6988C5.81815 36.7559 5.8602 36.8221 5.90224 36.8814C5.94428 36.9408 5.998 37.0161 6.04471 37.0823L6.15683 37.2307L6.17551 37.2536L6.2993 37.4111C6.34601 37.4682 6.39273 37.5253 6.44178 37.58C6.63022 37.8026 6.83059 38.0152 7.04204 38.217L7.20321 38.3677C7.37137 38.5199 7.54655 38.666 7.72873 38.806C7.83851 38.8905 7.9623 38.9727 8.06974 39.0526L8.08842 39.0663C8.1982 39.1439 8.32199 39.217 8.4271 39.2946C8.47532 39.3275 8.52521 39.3579 8.57658 39.3859C8.60665 39.4066 8.63783 39.4256 8.67001 39.443C8.78212 39.5099 8.89657 39.5739 9.01335 39.6348L9.14648 39.7032L9.21188 39.7375L9.28429 39.774L9.34268 39.8014C9.36274 39.8132 9.38384 39.8231 9.40574 39.8311C9.47114 39.8653 9.53654 39.895 9.60427 39.9247L9.71171 39.9726L9.80514 40.0114L9.91025 40.0548H9.93827C9.95999 40.0659 9.98265 40.075 10.006 40.0822L10.1485 40.1393L10.3423 40.2101L10.5362 40.2786L10.8188 40.3653C11.0033 40.4224 11.1902 40.4703 11.3747 40.5137L11.5826 40.5594C11.6713 40.5799 11.7601 40.5959 11.8512 40.6096C11.9002 40.6096 11.9493 40.6279 11.9983 40.6347L12.1712 40.6621L12.2833 40.6758C12.3253 40.6758 12.3697 40.6758 12.4141 40.6895C12.4257 40.6917 12.4375 40.6917 12.4491 40.6895H12.4725C12.5332 40.6895 12.5916 40.7032 12.65 40.7055H12.678H12.8252H12.8462H12.984H13.2176C13.3133 40.7055 13.4067 40.7055 13.5002 40.7055H13.5819C14.4219 40.6987 15.2556 40.5639 16.0531 40.306C16.6908 40.1071 17.3054 39.8431 17.8866 39.5183C17.9753 39.4681 18.0641 39.4179 18.1528 39.3631C18.328 39.2581 18.5008 39.1348 18.669 39.0298L18.7134 39.0001L18.8559 38.8973L18.8956 38.8699L18.996 38.7946C19.0194 38.7763 19.0427 38.7604 19.0661 38.7398L19.2109 38.6257C19.4482 38.4351 19.6743 38.2316 19.8882 38.0161C19.9817 37.9225 20.0704 37.8289 20.1568 37.7307C20.2059 37.6805 20.2503 37.628 20.2946 37.5755C20.3881 37.4705 20.4768 37.3609 20.5609 37.249C20.6053 37.1942 20.6473 37.1417 20.6847 37.0869C20.7221 37.0321 20.7758 36.9659 20.8178 36.9043L20.8669 36.8335C20.9712 36.6813 21.0716 36.5291 21.1682 36.3769C21.2102 36.3084 21.2523 36.2376 21.292 36.1669L21.306 36.1395C21.3258 36.1085 21.3437 36.0765 21.3597 36.0436C21.3854 36.0002 21.4111 35.9523 21.4344 35.9066C21.4578 35.8609 21.4508 35.8769 21.4578 35.8609C21.5886 35.6144 21.7054 35.361 21.8128 35.1007L21.8268 35.0642C21.8969 34.8929 21.9623 34.7194 22.0207 34.5459C22.0225 34.5384 22.0225 34.5306 22.0207 34.5231C22.0838 34.3427 22.1375 34.1601 22.1865 33.9775C22.1982 33.9295 22.2122 33.8793 22.2239 33.8313V33.8039L22.2613 33.6419L22.2799 33.5665L23.1652 29.7722L24.2793 25.0007L24.4101 24.9756L24.688 24.923L28.9413 24.1697Z" fill="#170000" fill-opacity="0.4"/>
</g>
<defs>
<clipPath id="clip0_2149_48047">
<rect width="233" height="45.9628" fill="white" transform="translate(22 8)"/>
</clipPath>
<clipPath id="clip1_2149_48047">
<rect width="49" height="54" fill="white"/>
</clipPath>
</defs>
</svg>
